<mxfile host="app.diagrams.net" modified="2023-10-11T10:17:01.926Z" agent="Mozilla/5.0 (Windows NT 10.0; Win64; x64) AppleWebKit/537.36 (KHTML, like Gecko) Chrome/117.0.0.0 Safari/537.36" etag="hEirPIfh6ottKc8PSy-c" version="22.0.4" type="device">
  <diagram name="PÃ¡gina-1" id="UxsVcm_Bv9rx7TOGr08b">
    <mxGraphModel dx="880" dy="470" grid="1" gridSize="10" guides="1" tooltips="1" connect="1" arrows="1" fold="1" page="1" pageScale="1" pageWidth="827" pageHeight="1169" math="0" shadow="0">
      <root>
        <mxCell id="0" />
        <mxCell id="1" parent="0" />
        <mxCell id="AqksTzAOfQT369DUdJ8F-3" value="Iphone" style="swimlane;whiteSpace=wrap;html=1;" vertex="1" parent="1">
          <mxGeometry x="220" y="110" width="470" height="120" as="geometry" />
        </mxCell>
        <mxCell id="AqksTzAOfQT369DUdJ8F-4" value="&lt;div style=&quot;text-align: left;&quot;&gt;&lt;span style=&quot;background-color: initial;&quot;&gt;+tocarMusica() : void&amp;nbsp;&lt;/span&gt;&lt;/div&gt;&lt;div style=&quot;text-align: left;&quot;&gt;&lt;span style=&quot;background-color: initial;&quot;&gt;+FazerChamada(number) : void&amp;nbsp;&lt;/span&gt;&lt;/div&gt;&lt;div style=&quot;text-align: left;&quot;&gt;&lt;span style=&quot;background-color: initial;&quot;&gt;+ Navegador(url: String) : void&lt;/span&gt;&lt;/div&gt;" style="text;html=1;align=center;verticalAlign=middle;resizable=0;points=[];autosize=1;strokeColor=none;fillColor=none;" vertex="1" parent="AqksTzAOfQT369DUdJ8F-3">
          <mxGeometry x="135" y="30" width="200" height="60" as="geometry" />
        </mxCell>
        <mxCell id="AqksTzAOfQT369DUdJ8F-20" style="edgeStyle=orthogonalEdgeStyle;rounded=0;orthogonalLoop=1;jettySize=auto;html=1;" edge="1" parent="1" source="AqksTzAOfQT369DUdJ8F-6">
          <mxGeometry relative="1" as="geometry">
            <mxPoint x="320" y="240" as="targetPoint" />
          </mxGeometry>
        </mxCell>
        <mxCell id="AqksTzAOfQT369DUdJ8F-6" value="Reprodutor Musical" style="swimlane;whiteSpace=wrap;html=1;" vertex="1" parent="1">
          <mxGeometry x="114" y="330" width="210" height="120" as="geometry" />
        </mxCell>
        <mxCell id="AqksTzAOfQT369DUdJ8F-7" value="&lt;div&gt;+playTrack(track: String) : void&amp;nbsp; &amp;nbsp; &amp;nbsp; &amp;nbsp;&lt;/div&gt;&lt;div&gt;+pause() : void&amp;nbsp; &amp;nbsp; &amp;nbsp; &amp;nbsp; &amp;nbsp; &amp;nbsp; &amp;nbsp; &amp;nbsp; &amp;nbsp; &amp;nbsp; &amp;nbsp; &amp;nbsp;&amp;nbsp;&lt;/div&gt;&lt;div&gt;+skipToNext() : void&amp;nbsp; &amp;nbsp; &amp;nbsp; &amp;nbsp; &amp;nbsp; &amp;nbsp; &amp;nbsp; &amp;nbsp; &amp;nbsp; &amp;nbsp;&lt;/div&gt;&lt;div&gt;+skipToPrevious() : void&amp;nbsp; &amp;nbsp; &amp;nbsp; &amp;nbsp; &amp;nbsp; &amp;nbsp; &amp;nbsp; &amp;nbsp;&lt;/div&gt;&lt;div&gt;+getNowPlaying() : String&amp;nbsp; &amp;nbsp; &amp;nbsp; &amp;nbsp; &amp;nbsp; &amp;nbsp; &amp;nbsp;&amp;nbsp;&lt;/div&gt;" style="text;html=1;align=left;verticalAlign=middle;resizable=0;points=[];autosize=1;strokeColor=none;fillColor=none;" vertex="1" parent="AqksTzAOfQT369DUdJ8F-6">
          <mxGeometry y="25" width="210" height="90" as="geometry" />
        </mxCell>
        <mxCell id="AqksTzAOfQT369DUdJ8F-21" style="edgeStyle=orthogonalEdgeStyle;rounded=0;orthogonalLoop=1;jettySize=auto;html=1;" edge="1" parent="1" source="AqksTzAOfQT369DUdJ8F-9">
          <mxGeometry relative="1" as="geometry">
            <mxPoint x="455" y="240" as="targetPoint" />
          </mxGeometry>
        </mxCell>
        <mxCell id="AqksTzAOfQT369DUdJ8F-9" value="Navegador Internet" style="swimlane;whiteSpace=wrap;html=1;" vertex="1" parent="1">
          <mxGeometry x="355" y="330" width="200" height="120" as="geometry" />
        </mxCell>
        <mxCell id="AqksTzAOfQT369DUdJ8F-10" value="&lt;div&gt;+openURL(url: String) : void&amp;nbsp;&lt;/div&gt;&lt;div&gt;+back() : void&amp;nbsp; &amp;nbsp; &amp;nbsp; &amp;nbsp; &amp;nbsp; &amp;nbsp; &amp;nbsp; &amp;nbsp;&lt;/div&gt;&lt;div&gt;+forward() : void&amp;nbsp; &amp;nbsp; &amp;nbsp; &amp;nbsp; &amp;nbsp; &amp;nbsp;&amp;nbsp;&lt;/div&gt;&lt;div&gt;+refresh() : void&amp;nbsp;&lt;/div&gt;" style="text;html=1;align=left;verticalAlign=middle;resizable=0;points=[];autosize=1;strokeColor=none;fillColor=none;" vertex="1" parent="AqksTzAOfQT369DUdJ8F-9">
          <mxGeometry y="25" width="180" height="70" as="geometry" />
        </mxCell>
        <mxCell id="AqksTzAOfQT369DUdJ8F-18" style="edgeStyle=orthogonalEdgeStyle;rounded=0;orthogonalLoop=1;jettySize=auto;html=1;" edge="1" parent="1" source="AqksTzAOfQT369DUdJ8F-11">
          <mxGeometry relative="1" as="geometry">
            <mxPoint x="600" y="240" as="targetPoint" />
          </mxGeometry>
        </mxCell>
        <mxCell id="AqksTzAOfQT369DUdJ8F-11" value="Aparelho Telefonico" style="swimlane;whiteSpace=wrap;html=1;" vertex="1" parent="1">
          <mxGeometry x="580" y="330" width="200" height="120" as="geometry" />
        </mxCell>
        <mxCell id="AqksTzAOfQT369DUdJ8F-13" value="+calling(number) : void&lt;br&gt;+attending() : void&lt;br&gt;voiceMessage() : void" style="text;html=1;align=left;verticalAlign=middle;resizable=0;points=[];autosize=1;strokeColor=none;fillColor=none;" vertex="1" parent="AqksTzAOfQT369DUdJ8F-11">
          <mxGeometry y="30" width="150" height="60" as="geometry" />
        </mxCell>
      </root>
    </mxGraphModel>
  </diagram>
</mxfile>
